<svg version="1.0" x="0px" y="0px" viewBox="0 0 18 18" style="enable-background:new 0 0 18 18;" preserveAspectRatio="xMinYMin" xmlns="http://www.w3.org/2000/svg">
  <path style="fill: rgb(101, 119, 140); fill-rule: evenodd; clip-rule: evenodd;" d="M 3.599 -0.038 C 1.612 -0.038 0 1.573 0 3.563 L 0 14.363 C 0 16.35 1.608 17.964 3.599 17.964 L 14.392 17.964 C 16.378 17.964 17.991 16.354 17.991 14.363 L 17.991 3.563 C 17.991 1.576 16.381 -0.038 14.392 -0.038 L 3.599 -0.038 Z M 11.746 12.975 C 11.746 12.975 11.399 12.565 11.115 12.211 C 12.368 11.857 12.847 11.08 12.847 11.08 C 12.454 11.338 12.082 11.519 11.748 11.645 C 11.27 11.848 10.809 11.971 10.361 12.057 C 9.443 12.228 8.603 12.181 7.886 12.047 C 7.341 11.941 6.871 11.797 6.478 11.634 C 6.259 11.55 6.02 11.443 5.779 11.31 C 5.766 11.3 5.752 11.293 5.735 11.286 C 5.721 11.278 5.708 11.272 5.691 11.263 C 5.685 11.259 5.677 11.254 5.674 11.252 C 5.666 11.248 5.66 11.241 5.654 11.241 C 5.483 11.145 5.386 11.08 5.386 11.08 C 5.386 11.08 5.844 11.838 7.061 12.201 C 6.773 12.565 6.42 12.986 6.42 12.986 C 4.307 12.917 3.503 11.54 3.503 11.54 C 3.503 8.486 4.879 6.006 4.879 6.006 C 6.255 4.981 7.557 5.009 7.557 5.009 L 7.653 5.126 C 5.931 5.612 5.146 6.369 5.146 6.369 C 5.146 6.369 5.355 6.253 5.712 6.102 C 6.735 5.654 7.548 5.537 7.882 5.499 L 7.903 5.496 C 7.951 5.489 7.996 5.478 8.043 5.478 C 8.626 5.403 9.286 5.382 9.974 5.459 C 10.883 5.564 11.858 5.832 12.855 6.366 C 12.855 6.366 12.097 5.646 10.47 5.159 L 10.606 5.006 C 10.606 5.006 11.915 4.978 13.283 6.002 C 13.283 6.002 14.659 8.48 14.659 11.536 C 14.659 11.536 14.655 11.54 14.652 11.546 C 14.576 11.673 13.749 12.913 11.746 12.975 Z M 10.789 8.545 C 10.246 8.545 9.814 9.014 9.814 9.596 C 9.814 10.179 10.251 10.649 10.789 10.649 C 11.334 10.649 11.765 10.179 11.765 9.596 C 11.765 9.014 11.324 8.545 10.789 8.545 Z M 7.297 8.545 C 6.752 8.545 6.321 9.014 6.321 9.596 C 6.321 10.179 6.759 10.649 7.297 10.649 C 7.842 10.649 8.273 10.179 8.273 9.596 C 8.283 9.014 7.844 8.545 7.297 8.545 Z"></path>
</svg>