<svg width="2500" height="822" viewBox="0 0 2500 822" fill="none" xmlns="http://www.w3.org/2000/svg">
<path d="M1272.44 21.685C1278.29 21.685 1281.21 26.0705 1280.48 33.3796L1278.29 70.0066C1278.29 72.1993 1276.83 75.123 1272.44 75.8539L1251.25 77.3157H1249.05V380.321C1249.05 528.128 1191.23 598.458 1043.34 598.458C902.112 598.458 840.552 550.867 840.552 380.321V77.3157L817.894 75.8539C812.778 75.8539 810.585 70.7375 811.316 64.1593L813.509 27.5323C813.509 23.8777 815.701 21.685 819.356 21.685H944.505C950.352 21.685 953.276 26.0705 952.545 33.3796L950.352 70.0066C950.352 72.1993 948.89 75.123 944.505 75.8539L923.308 77.3157V394.939C923.308 485.735 950.352 534.706 1042.61 534.706C1145.1 534.706 1168.49 471.766 1168.49 394.939V77.3157L1145.83 75.8539C1140.71 75.8539 1138.52 70.7375 1139.25 64.1593L1141.45 27.5323C1141.45 23.8777 1143.64 21.685 1147.29 21.685H1272.44Z" fill="#484848"/>
<path d="M2029.99 21.6849C2035.84 21.6849 2038.77 26.0704 2038.03 33.3796L2035.84 70.0065C2035.84 72.1993 2034.38 75.123 2029.99 75.8539L2009.53 77.3157L1885.84 564.024C1881.46 580.104 1868.3 589.606 1852.22 589.606L1795.13 587.413C1787.09 587.413 1784.16 582.297 1781.97 574.257L1682.4 146.103H1681.67L1583.57 555.253C1579.91 569.871 1570.41 590.418 1544.75 589.687L1489.85 587.494C1483.27 587.494 1478.88 583.84 1476.69 574.338L1356.66 77.3157L1334.73 75.8539C1329.62 75.8539 1327.42 70.7374 1328.15 64.1592L1330.35 27.5323C1330.35 23.8777 1332.54 21.6849 1336.19 21.6849H1456.96C1462.8 21.6849 1465.73 26.0704 1465 33.3796L1462.8 70.0065C1462.8 72.1993 1461.34 75.123 1456.96 75.8539L1436.49 77.3157L1530.05 504.008H1530.78L1635.46 55.307C1641.31 29.725 1653.74 20.8728 1671.36 21.6037L1713.1 23.7965C1720.41 24.5274 1723.33 28.182 1725.53 37.6839L1831.67 503.926H1832.4L1930.43 77.3157L1908.5 75.8539C1903.38 75.8539 1901.19 70.7374 1901.92 64.1592L1904.11 27.5323C1904.11 23.8777 1906.31 21.6849 1909.96 21.6849H2029.99Z" fill="#484848"/>
<path d="M2333 385.437L2237.82 115.323H2237.09L2147.02 385.437H2333ZM2493.31 535.518C2498.43 535.518 2500.62 540.635 2499.89 547.213L2497.7 583.84C2497.7 587.494 2495.51 589.687 2492.58 589.687H2364.51C2358.66 589.687 2355.74 585.302 2356.47 577.992L2358.66 541.366C2358.66 539.173 2360.12 536.249 2364.51 535.518L2384.98 534.056L2356.47 452.844H2124.44L2097.4 534.056L2120.06 535.518C2125.18 535.518 2127.37 540.635 2126.64 547.213L2124.44 583.84C2124.44 587.494 2122.25 589.687 2118.6 589.687H1994.91C1989.06 589.687 1986.14 585.302 1986.87 577.992L1989.06 541.366C1989.06 539.173 1990.53 536.249 1994.91 535.518L2015.38 534.056L2179.34 77.3157L2157.42 75.8539C2152.3 75.8539 2150.11 70.7375 2150.84 64.1593L2153.03 27.5323C2153.03 23.8778 2155.22 21.685 2158.88 21.685H2275.26L2471.39 534.056L2493.31 535.518Z" fill="#484848"/>
<path d="M864.185 733.84C874.986 733.84 883.432 729.86 883.432 715.567C883.432 704.847 878.316 698.269 864.51 698.269H852.49V733.84H864.185ZM864.347 688.036C887.574 688.036 896.751 696.807 896.751 715.242C896.751 738.063 880.184 744.316 865.484 744.316H852.572V769.655L856.145 769.898C856.957 769.898 857.282 770.71 857.201 771.766L856.876 777.613C856.876 778.182 856.551 778.507 855.901 778.507H835.923C834.948 778.507 834.542 777.776 834.623 776.639L834.948 770.792C834.948 770.467 835.192 769.979 835.923 769.817L839.334 769.573V696.807L835.679 696.563C834.867 696.563 834.542 695.751 834.623 694.695L834.948 688.848C834.948 688.279 835.273 687.955 835.923 687.955H864.347" fill="#484848"/>
<path d="M1002.82 763.32C1003.38 763.32 1003.79 763.645 1003.79 764.213V778.507H947.266C946.291 778.507 945.885 777.776 945.966 776.639L946.291 770.792C946.291 770.467 946.535 769.979 947.266 769.817L950.676 769.573V696.807L947.022 696.563C946.21 696.563 945.885 695.751 945.966 694.695L946.291 688.848C946.291 688.279 946.616 687.955 947.266 687.955H1001.84V702.167C1001.84 703.06 1001.11 703.547 999.973 703.466L994.125 703.141C993.8 703.141 993.313 702.898 993.232 702.248L992.988 698.837H963.914V726.449H996.805V737.17H963.914V767.624H994.937L995.181 764.051C995.181 763.239 995.993 762.914 997.049 762.995L1002.82 763.32Z" fill="#484848"/>
<path d="M1082.16 733.109C1094.75 733.109 1101.98 727.586 1101.98 714.998C1101.98 702.979 1095.07 698.187 1083.22 698.187H1072.01V733.028C1072.01 733.109 1082.16 733.109 1082.16 733.109ZM1118.14 769.898C1118.95 769.898 1119.27 770.71 1119.19 771.766L1118.87 777.613C1118.87 778.182 1118.54 778.507 1117.98 778.507H1104.66L1084.84 743.504H1072.01V769.655L1075.58 769.898C1076.39 769.898 1076.72 770.71 1076.64 771.766L1076.31 777.613C1076.31 778.182 1075.99 778.507 1075.34 778.507H1055.36C1054.39 778.507 1053.98 777.776 1054.06 776.639L1054.39 770.792C1054.39 770.467 1054.63 769.979 1055.36 769.817L1058.77 769.573V696.807L1055.2 696.563C1054.39 696.563 1054.06 695.751 1054.14 694.695L1054.47 688.848C1054.47 688.279 1054.79 687.955 1055.44 687.955H1081.75C1104.49 687.955 1115.21 696.563 1115.21 714.998C1115.21 726.774 1109.04 736.845 1097.92 740.987L1114.48 769.573L1118.14 769.898Z" fill="#484848"/>
<path d="M1230.13 688.036V702.248C1230.13 703.141 1229.4 703.629 1228.26 703.547L1222.41 703.223C1222.09 703.223 1221.6 702.979 1221.44 702.329L1221.2 698.918V698.837H1203.49V769.655L1207.07 769.898C1207.88 769.898 1208.2 770.71 1208.12 771.766L1207.8 777.613C1207.8 778.182 1207.47 778.507 1206.82 778.507H1186.84C1185.87 778.507 1185.46 777.776 1185.54 776.639L1185.87 770.792C1185.87 770.467 1186.11 769.979 1186.84 769.817L1190.25 769.573V698.675H1173.85L1173.61 702.248C1173.61 703.06 1172.79 703.385 1171.74 703.304L1165.89 702.979C1165.32 702.979 1164.92 702.654 1164.92 702.086V688.036H1230.13Z" fill="#484848"/>
<path d="M1355.69 769.898C1356.5 769.898 1356.82 770.71 1356.74 771.766L1356.42 777.613C1356.42 778.182 1356.09 778.507 1355.44 778.507H1335.46C1334.49 778.507 1334.08 777.776 1334.16 776.639L1334.49 770.792C1334.49 770.467 1334.73 769.979 1335.46 769.817L1338.87 769.573V738.225H1298.27V769.655L1301.84 769.898C1302.65 769.898 1302.98 770.71 1302.9 771.766L1302.57 777.613C1302.57 778.182 1302.25 778.507 1301.68 778.507H1281.7C1280.73 778.507 1280.32 777.776 1280.4 776.639L1280.73 770.792C1280.73 770.467 1280.97 769.979 1281.7 769.817L1285.11 769.573V696.807L1281.54 696.563C1280.73 696.563 1280.4 695.751 1280.48 694.695L1280.81 688.848C1280.81 688.279 1281.13 687.955 1281.78 687.955H1301.76C1302.65 687.955 1303.14 688.686 1303.06 689.822L1302.73 695.67C1302.73 695.995 1302.49 696.482 1301.84 696.644L1298.43 696.888V727.424H1339.04V696.888L1335.38 696.644C1334.57 696.644 1334.24 695.832 1334.33 694.776L1334.65 688.929C1334.65 688.361 1334.98 688.036 1335.63 688.036H1355.6C1356.58 688.036 1356.98 688.767 1356.9 689.904L1356.58 695.751C1356.58 696.076 1356.33 696.563 1355.6 696.726L1352.19 696.969V769.655L1355.69 769.898Z" fill="#484848"/>
<path d="M1431.13 726.937C1432.67 728.48 1433.49 730.348 1433.49 732.54C1433.49 734.733 1432.67 736.601 1431.13 738.144C1429.59 739.687 1427.72 740.499 1425.53 740.499C1423.34 740.499 1421.47 739.687 1419.92 738.144C1418.38 736.601 1417.57 734.733 1417.57 732.54C1417.57 730.348 1418.38 728.48 1419.92 726.937C1421.47 725.312 1423.34 724.582 1425.53 724.582C1427.72 724.582 1429.67 725.312 1431.13 726.937Z" fill="#484848"/>
<path d="M1543.12 745.941L1527.94 702.898H1527.77L1513.4 745.941H1543.12ZM1568.62 769.898C1569.44 769.898 1569.76 770.71 1569.68 771.766L1569.36 777.613C1569.36 778.182 1569.03 778.507 1568.54 778.507H1548.16C1547.27 778.507 1546.78 777.776 1546.86 776.639L1547.18 770.792C1547.18 770.467 1547.43 769.979 1548.08 769.817L1551.33 769.573L1546.78 756.661H1509.83L1505.52 769.573L1509.1 769.817C1509.91 769.817 1510.23 770.629 1510.15 771.685L1509.83 777.532C1509.83 778.101 1509.5 778.426 1508.85 778.426H1489.12C1488.14 778.426 1487.74 777.695 1487.82 776.558L1488.14 770.71C1488.14 770.386 1488.39 769.898 1489.12 769.736L1492.37 769.492L1518.52 696.726L1515.02 696.482C1514.21 696.482 1513.89 695.67 1513.97 694.614L1514.29 688.767C1514.29 688.198 1514.62 687.873 1515.27 687.873H1533.78L1565.05 769.492L1568.62 769.898Z" fill="#484848"/>
<path d="M1687.11 688.036C1688.01 688.036 1688.49 688.767 1688.41 689.904L1688.09 695.751C1688.09 696.076 1687.84 696.563 1687.2 696.726L1683.78 696.969H1683.46V745.128C1683.46 768.68 1674.2 779.887 1650.65 779.887C1628.15 779.887 1618.33 772.335 1618.33 745.128V696.888L1614.75 696.644C1613.94 696.644 1613.62 695.832 1613.7 694.776L1614.02 688.929C1614.02 688.361 1614.35 688.036 1614.92 688.036H1634.89C1635.87 688.036 1636.27 688.767 1636.19 689.904L1635.87 695.751C1635.87 696.076 1635.63 696.563 1634.89 696.726L1631.48 696.969V747.484C1631.48 761.939 1635.79 769.736 1650.49 769.736C1666.81 769.736 1670.55 759.747 1670.55 747.484V696.888L1666.97 696.644C1666.16 696.644 1665.84 695.832 1665.92 694.776L1666.24 688.929C1666.24 688.361 1666.57 688.036 1667.14 688.036H1687.11Z" fill="#484848"/>
<path d="M1797.24 753.656C1797.24 768.355 1786.36 779.075 1765.97 779.075C1755.01 779.075 1746.24 776.72 1739.98 774.04V759.909C1739.98 758.853 1740.8 758.285 1742.18 758.366L1749.16 758.853C1749.65 758.853 1750.22 759.097 1750.3 759.909L1750.54 766.244C1756.06 767.543 1761.51 768.193 1765.24 768.193C1775.88 768.193 1784.16 764.619 1784.16 754.874C1784.16 744.479 1780.18 742.367 1762.24 735.951C1749.16 731.079 1740.23 724.419 1740.23 711.425C1740.23 696.807 1751.27 687.142 1771.01 687.142C1778.24 687.142 1785.14 687.873 1791.64 689.498V704.766C1791.64 705.821 1790.82 706.39 1789.44 706.309L1782.46 705.821C1781.97 705.821 1781.4 705.578 1781.32 704.766L1781.08 698.431C1777.91 698.106 1774.74 697.863 1771.82 697.863C1760.94 697.863 1753.87 702.898 1753.87 710.938C1753.87 719.303 1758.74 722.389 1774.74 728.074C1791.39 734.083 1797.24 742.042 1797.24 753.656Z" fill="#484848"/>
<path d="M1910.29 688.036V702.248C1910.29 703.141 1909.56 703.629 1908.42 703.547L1902.57 703.223C1902.25 703.223 1901.76 702.979 1901.68 702.329L1901.43 698.918V698.837H1883.73V769.655L1887.3 769.898C1888.12 769.898 1888.44 770.71 1888.36 771.766L1888.03 777.613C1888.03 778.182 1887.71 778.507 1887.14 778.507H1867.16C1866.27 778.507 1865.78 777.776 1865.86 776.639L1866.19 770.792C1866.19 770.467 1866.43 769.979 1867.08 769.817L1870.49 769.573V698.675H1854.09L1853.84 702.248C1853.84 703.06 1853.03 703.385 1851.98 703.304L1846.13 702.979C1845.56 702.979 1845.24 702.654 1845.24 702.086V688.036H1910.29Z" fill="#484848"/>
<path d="M1991.01 733.109C2003.6 733.109 2010.83 727.586 2010.83 714.998C2010.83 702.979 2003.93 698.187 1992.07 698.187H1980.86V733.028L1991.01 733.109ZM2027.07 769.898C2027.88 769.898 2028.21 770.71 2028.13 771.766L2027.8 777.613C2027.8 778.182 2027.48 778.507 2026.91 778.507H2013.59L1993.77 743.504H1980.94V769.655L1984.52 769.898C1985.33 769.898 1985.65 770.71 1985.57 771.766L1985.25 777.613C1985.25 778.182 1984.92 778.507 1984.35 778.507H1964.37C1963.48 778.507 1962.99 777.776 1963.08 776.639L1963.4 770.792C1963.4 770.467 1963.64 769.979 1964.29 769.817L1967.7 769.573V696.807L1964.13 696.563C1963.32 696.563 1962.99 695.751 1963.08 694.695L1963.4 688.848C1963.4 688.279 1963.72 687.955 1964.29 687.955H1990.69C2013.43 687.955 2024.15 696.563 2024.15 714.998C2024.15 726.774 2017.97 736.845 2006.93 740.987L2023.5 769.573L2027.07 769.898Z" fill="#484848"/>
<path d="M2132 745.941L2116.81 702.898H2116.73L2102.36 745.941H2132ZM2157.5 769.898C2158.31 769.898 2158.64 770.71 2158.55 771.766L2158.23 777.613C2158.23 778.182 2157.9 778.507 2157.42 778.507H2137.03C2136.06 778.507 2135.65 777.776 2135.73 776.639L2136.06 770.792C2136.06 770.467 2136.3 769.979 2137.03 769.817L2140.28 769.573L2135.73 756.661H2098.78L2094.48 769.573L2098.13 769.817C2098.94 769.817 2099.27 770.629 2099.19 771.685L2098.86 777.532C2098.86 778.101 2098.54 778.426 2097.97 778.426H2078.24C2077.34 778.426 2076.85 777.695 2076.94 776.558L2077.26 770.71C2077.26 770.386 2077.5 769.898 2078.15 769.736L2081.4 769.492L2107.55 696.726L2104.06 696.482C2103.25 696.482 2102.92 695.67 2103 694.614L2103.33 688.767C2103.33 688.198 2103.65 687.873 2104.22 687.873H2122.74L2154.01 769.492L2157.5 769.898Z" fill="#484848"/>
<path d="M2268.76 763.32C2269.33 763.32 2269.65 763.645 2269.65 764.213V778.507H2213.13C2212.24 778.507 2211.75 777.776 2211.83 776.639L2212.15 770.792C2212.15 770.467 2212.4 769.979 2213.05 769.817L2216.46 769.573V696.807L2212.89 696.563C2212.07 696.563 2211.75 695.751 2211.83 694.695L2212.15 688.848C2212.15 688.279 2212.48 687.955 2213.05 687.955H2233.03C2233.92 687.955 2234.41 688.686 2234.33 689.822L2234 695.67C2234 695.995 2233.76 696.482 2233.11 696.644L2229.7 696.888V767.624H2260.8L2261.04 764.051C2261.04 763.239 2261.86 762.914 2262.91 762.995L2268.76 763.32Z" fill="#484848"/>
<path d="M2343.88 769.898C2344.69 769.898 2345.02 770.71 2344.94 771.766L2344.61 777.613C2344.61 778.182 2344.29 778.507 2343.72 778.507H2323.74C2322.85 778.507 2322.36 777.776 2322.44 776.639L2322.77 770.792C2322.77 770.467 2323.01 769.979 2323.66 769.817L2327.07 769.573V696.807L2323.5 696.563C2322.69 696.563 2322.36 695.751 2322.44 694.695L2322.77 688.848C2322.77 688.279 2323.09 687.955 2323.66 687.955H2343.64C2344.53 687.955 2345.02 688.686 2344.94 689.822L2344.61 695.67C2344.61 695.995 2344.37 696.482 2343.72 696.644L2340.31 696.888V769.655L2343.88 769.898Z" fill="#484848"/>
<path d="M2448.73 745.941L2433.54 702.898H2433.46L2419.08 745.941H2448.73ZM2474.23 769.898C2475.04 769.898 2475.37 770.71 2475.28 771.766L2474.96 777.613C2474.96 778.182 2474.63 778.507 2474.15 778.507H2453.76C2452.87 778.507 2452.38 777.776 2452.46 776.639L2452.79 770.792C2452.79 770.467 2453.03 769.979 2453.68 769.817L2456.93 769.573L2452.38 756.661H2415.43L2411.13 769.573L2414.7 769.817C2415.51 769.817 2415.84 770.629 2415.76 771.685L2415.43 777.532C2415.43 778.101 2415.11 778.426 2414.54 778.426H2394.8C2393.91 778.426 2393.42 777.695 2393.5 776.558L2393.83 770.71C2393.83 770.386 2394.07 769.898 2394.72 769.736L2397.97 769.492L2424.12 696.726L2420.63 696.482C2419.82 696.482 2419.49 695.67 2419.57 694.614L2419.9 688.767C2419.9 688.198 2420.22 687.873 2420.79 687.873H2439.31L2470.57 769.492L2474.23 769.898Z" fill="#484848"/>
<path d="M649.053 574.257C587.493 675.204 480.374 735.464 362.209 735.464C244.044 735.464 136.925 675.204 75.3654 574.338L10.8013 634.029C46.8597 687.955 95.1001 733.271 151.299 765.756C215.133 802.546 288.062 822.037 362.209 822.037C436.356 822.037 509.204 802.546 573.119 765.675C627.694 734.165 676.421 684.462 712.155 632.567L649.053 574.257Z" fill="#484848"/>
<path d="M82.5122 21.2789H641.825V0.00117476H82.5122V21.2789Z" fill="#D6D6D6"/>
<path d="M641.824 223.905C640.769 286.276 655.387 533.813 362.209 706.958C68.9495 533.813 83.649 286.276 82.5933 223.905V21.2789H641.906L641.824 223.905Z" fill="#484848"/>
<path d="M119.464 441.311C155.035 528.372 224.797 625.827 362.209 706.958C499.621 625.827 569.383 528.372 604.873 441.311L362.209 216.839L119.464 441.311Z" fill="#D6D6D6"/>
<path d="M316.649 76.666V184.517C287.656 173.878 252.815 182.324 234.299 195.968V89.0915C250.46 73.2551 288.874 66.1896 316.649 76.666Z" fill="white"/>
<path d="M143.828 76.9096V184.76C172.739 174.121 207.661 182.567 226.177 196.211V89.3351C210.016 73.5799 171.602 66.4331 143.828 76.9096Z" fill="white"/>
<path d="M341.419 162.427H341.175C337.033 162.021 333.866 161.777 331.754 161.615V126.449C333.866 126.612 336.952 126.774 340.931 127.262H341.419C349.702 127.668 350.839 123.445 350.839 123.445C348.971 119.059 344.83 117.11 341.419 116.866H341.175C337.033 116.46 333.866 116.217 331.754 116.054V86.2491H324.445V194.668C284.57 186.141 254.521 190.526 230.238 208.312C206.037 190.526 175.907 186.141 136.032 194.668V86.2491H128.722V115.973C127.179 116.054 125.149 116.217 122.55 116.46V115.323C122.55 114.511 121.9 113.861 120.926 113.861L111.018 114.917C110.206 114.998 109.556 115.648 109.556 116.46V129.211C109.556 130.023 110.206 130.673 111.262 130.673L121.17 129.698C121.9 129.617 122.55 128.967 122.55 128.155V126.937C125.149 126.693 127.179 126.531 128.722 126.449V161.615C127.179 161.696 125.149 161.858 122.55 162.102V160.965C122.55 160.153 121.9 159.503 120.926 159.503L111.018 160.559C110.206 160.64 109.556 161.29 109.556 162.102V174.771C109.556 175.583 110.206 176.314 111.262 176.233L121.17 175.258C121.9 175.177 122.55 174.527 122.55 173.796V172.578C125.149 172.335 127.179 172.172 128.722 172.091V203.845L133.189 202.789C174.202 193.206 204.331 197.348 227.964 215.783L230.238 217.57L232.512 215.783C256.145 197.348 286.275 193.206 327.288 202.789L331.754 203.845V172.091C333.866 172.253 336.952 172.416 340.931 172.903H341.419C349.702 173.309 350.839 169.086 350.839 169.086C348.971 164.701 344.83 162.752 341.419 162.427Z" fill="white"/>
<path d="M134.57 715.567C130.671 720.602 124.093 721.414 117.028 715.973C113.211 713.049 110.855 709.963 109.394 707.364L113.129 702.492C113.373 702.167 113.86 702.167 114.266 702.573L116.54 704.603C116.703 704.684 116.865 704.928 116.703 705.253L115.078 707.527C116.621 709.395 118.327 711.1 119.626 712.156C123.281 714.998 127.098 715.973 129.697 712.643C132.458 709.07 131.646 707.283 127.179 700.299C124.012 695.101 122.631 690.472 126.123 686.005C130.022 680.97 136.437 680.564 143.178 685.843C145.696 687.792 147.888 689.822 149.675 692.178L145.614 697.456C145.371 697.781 144.884 697.781 144.477 697.375L142.204 695.345C142.041 695.182 141.879 695.02 142.041 694.695L143.665 692.421C142.691 691.447 141.635 690.553 140.66 689.741C136.925 686.818 133.108 686.655 130.996 689.498C128.722 692.421 129.616 694.776 133.595 700.949C137.737 707.283 137.656 711.587 134.57 715.567Z" fill="white"/>
<path d="M173.552 745.128C173.796 745.291 173.796 745.453 173.714 745.697L170.547 751.057L149.351 738.55C149.026 738.306 148.944 737.982 149.269 737.576L150.731 735.464C150.812 735.302 150.975 735.22 151.3 735.302L152.599 735.951L168.679 708.664L167.38 707.77C167.055 707.608 167.136 707.202 167.38 706.877L168.842 704.766C169.004 704.522 169.166 704.522 169.41 704.603L189.876 716.704L186.708 722.064C186.465 722.389 186.14 722.47 185.734 722.145L183.622 720.683C183.46 720.602 183.379 720.44 183.46 720.115L184.11 718.815L173.227 712.4L167.136 722.795L179.48 730.104L177.125 734.165L164.781 726.937L158.04 738.388L169.654 745.21L170.547 743.91C170.709 743.585 171.116 743.667 171.44 743.91L173.552 745.128Z" fill="white"/>
<path d="M217.975 765.838C218.219 765.919 218.3 766.163 218.219 766.406L215.782 772.091L193.205 762.346C192.799 762.183 192.799 761.858 193.043 761.371L194.18 759.097C194.261 758.935 194.423 758.772 194.748 758.853L196.129 759.341L208.717 730.266L207.336 729.536C207.011 729.373 207.011 729.048 207.255 728.642L208.392 726.368C208.473 726.125 208.717 726.043 208.96 726.125L230.807 735.545L228.37 741.23C228.208 741.636 227.883 741.636 227.396 741.393L225.122 740.256C224.959 740.174 224.797 740.012 224.878 739.687L225.365 738.307L213.752 733.271L208.717 744.398L221.873 750.082L220.005 754.387L206.849 748.702L201.57 760.884L213.996 766.244L214.727 764.863C214.889 764.538 215.214 764.538 215.62 764.782L217.975 765.838Z" fill="white"/>
<path d="M278.154 750.488C278.56 750.57 278.641 750.976 278.479 751.382L277.667 753.818C277.585 753.981 277.504 754.143 277.179 754.062L275.717 753.737L259.8 763.158L266.784 784.11L268.246 784.598C268.571 784.679 268.652 785.085 268.49 785.491L267.677 787.927C267.596 788.171 267.434 788.252 267.19 788.171L261.993 786.709L255.089 766L250.704 768.599L247.699 778.832L249.161 779.319C249.486 779.4 249.567 779.806 249.405 780.212L248.592 782.649C248.511 782.892 248.349 782.973 248.105 782.892L239.74 780.618C239.334 780.537 239.253 780.131 239.415 779.725L240.227 777.289C240.309 777.126 240.39 776.964 240.715 777.045L242.177 777.37L250.785 746.915L249.323 746.428C248.998 746.347 248.917 745.94 249.08 745.534L249.892 743.098C249.973 742.854 250.135 742.773 250.379 742.854L258.744 745.21C259.15 745.291 259.231 745.697 259.069 746.184L258.257 748.62C258.176 748.783 258.094 748.945 257.769 748.864L256.308 748.539L252.491 762.183L269.139 752.194L267.677 751.707C267.353 751.625 267.271 751.219 267.434 750.813L268.246 748.377C268.327 748.133 268.49 748.052 268.733 748.133L278.154 750.488Z" fill="white"/>
<path d="M367.569 760.884C367.975 760.884 368.137 761.209 368.056 761.696L367.731 764.213C367.731 764.376 367.65 764.538 367.325 764.619H365.863L355.549 797.917C355.143 799.054 354.25 799.622 353.113 799.541L349.134 799.216C348.565 799.216 348.403 798.81 348.24 798.242L342.88 768.193H342.799L334.515 796.211C334.19 797.186 333.459 798.566 331.673 798.485L327.856 798.16C327.368 798.16 327.125 797.835 326.962 797.186L320.465 762.345L318.922 762.183C318.598 762.183 318.435 761.777 318.516 761.371L318.841 758.853C318.841 758.61 319.004 758.447 319.247 758.447L327.612 758.853C328.018 758.853 328.181 759.178 328.099 759.665L327.775 762.183C327.775 762.346 327.693 762.508 327.368 762.589H325.907L330.861 792.475H330.942L339.794 761.777C340.281 759.99 341.175 759.422 342.393 759.584L345.317 759.909C345.804 759.99 346.047 760.234 346.129 760.884L351.814 793.531H351.895L360.26 764.295L358.717 764.132C358.392 764.132 358.229 763.726 358.311 763.32L358.554 760.802C358.554 760.559 358.717 760.396 358.96 760.396L367.569 760.884Z" fill="white"/>
<path d="M399.404 794.019C399.729 794.019 399.973 794.343 399.892 794.831L399.973 797.348C399.973 797.592 399.892 797.754 399.567 797.754L390.958 798.485C390.552 798.485 390.309 798.242 390.309 797.754L390.227 795.237C390.227 795.074 390.309 794.831 390.633 794.831L392.095 794.587L389.415 762.995H387.872C387.547 762.995 387.304 762.67 387.385 762.264L387.304 759.747C387.304 759.503 387.385 759.341 387.71 759.341L396.318 758.61C396.724 758.61 396.968 758.853 396.968 759.341L397.049 761.858C397.049 762.021 396.968 762.183 396.643 762.264L395.181 762.508L397.861 794.1L399.404 794.019Z" fill="white"/>
<path d="M447.32 779.4C448.538 785.654 444.803 791.176 436.032 792.8C431.321 793.694 427.423 793.45 424.499 792.8L423.362 786.79C423.281 786.303 423.606 786.06 424.174 785.978L427.179 785.572C427.342 785.572 427.667 785.572 427.748 785.897L428.398 788.577C430.834 788.658 433.27 788.496 434.813 788.252C439.361 787.359 442.61 785.166 441.798 781.024C440.986 776.558 439.118 775.989 430.834 774.771C424.824 773.715 420.439 771.685 419.383 766.081C418.165 759.828 422.144 754.793 430.509 753.168C433.595 752.6 436.6 752.275 439.524 752.437L440.823 758.935C440.904 759.422 440.579 759.665 440.011 759.747L437.006 760.153C436.844 760.153 436.519 760.153 436.438 759.828L435.788 757.148C434.407 757.229 433.027 757.391 431.808 757.635C427.179 758.528 424.581 761.29 425.23 764.701C425.88 768.274 428.235 769.167 435.544 770.304C443.178 771.441 446.346 774.365 447.32 779.4Z" fill="white"/>
<path d="M484.597 775.34C494.829 771.929 494.829 764.132 492.231 756.417C489.388 747.971 485.49 743.017 474.445 746.753L470.222 748.133L479.886 776.883L484.597 775.34ZM472.983 742.448C487.926 737.413 494.18 743.261 497.997 754.549C502.707 768.518 497.591 775.746 484.678 780.05L474.445 783.461C474.039 783.623 473.795 783.38 473.633 782.892L472.983 780.456C472.902 780.294 472.983 780.05 473.227 779.969L474.608 779.4L464.537 749.352L462.994 749.758C462.669 749.839 462.426 749.595 462.263 749.108L461.613 746.671C461.532 746.428 461.613 746.265 461.857 746.184L472.983 742.448Z" fill="white"/>
<path d="M522.604 743.991C525.609 749.92 530.807 756.985 538.278 753.25C544.451 750.164 544.451 743.585 540.228 735.139C537.141 729.048 531.944 722.308 524.635 725.962C517.163 729.779 519.599 738.144 522.604 743.991ZM545.588 732.54C551.597 744.56 549.242 753.006 540.309 757.473C531.538 761.858 523.092 758.61 517.163 746.753C512.859 738.225 511.397 727.262 522.442 721.739C532.025 717.029 540.309 721.983 545.588 732.54Z" fill="white"/>
<path d="M606.741 711.1C607.066 710.857 607.39 711.1 607.553 711.506L608.934 713.699C609.096 713.943 609.015 714.105 608.852 714.268L601.868 719.221C601.543 719.465 601.218 719.303 600.975 718.897L599.594 716.704C599.513 716.541 599.432 716.379 599.675 716.135L600.812 715.242L586.275 695.751L591.554 720.196C591.716 721.008 591.716 721.902 591.148 722.308C590.661 722.632 590.011 723.12 589.524 723.363C589.036 723.688 588.712 723.688 588.306 723.445L566.216 710.044L579.697 730.185L581.078 729.373C581.402 729.129 581.727 729.373 581.89 729.779L583.27 731.972C583.433 732.216 583.352 732.378 583.189 732.54L576.367 737.332C576.042 737.576 575.718 737.413 575.474 737.007L574.093 734.814C574.012 734.652 574.012 734.489 574.174 734.246L575.311 733.271L557.851 706.796L556.551 707.608C556.226 707.852 555.902 707.608 555.739 707.202L554.359 705.009C554.196 704.766 554.277 704.603 554.44 704.441L559.394 700.949C559.637 700.786 559.8 700.867 560.043 700.949L586.113 716.541L579.697 687.305C579.616 686.818 579.697 686.574 580.103 686.249L585.301 682.595C585.625 682.351 585.95 682.513 586.194 682.919L587.575 685.112C587.656 685.275 587.737 685.437 587.493 685.681L586.356 686.574L605.604 711.75L606.741 711.1Z" fill="white"/>
<path d="M26.6378 604.793L67.7315 566.785L77.0709 558.014L82.2685 566.623C91.202 581.485 101.272 595.453 112.074 608.447L126.042 595.778C107.073 572.803 91.6856 547.093 80.4006 519.519C76.0964 509.043 72.523 498.404 69.5181 487.521L47.1846 544.939L0 551.598C0.0812128 551.761 0.162426 552.004 0.243638 552.167L26.6378 604.793Z" fill="#484848"/>
<path d="M580.834 76.666V184.517C551.922 173.878 517 182.324 498.484 195.968V89.0915C514.726 73.2551 553.059 66.1896 580.834 76.666Z" fill="white"/>
<path d="M408.094 76.9096V184.76C437.006 174.121 471.928 182.567 490.444 196.211V89.3351C474.201 73.5799 435.869 66.4331 408.094 76.9096Z" fill="white"/>
<path d="M605.685 162.427H605.441C601.299 162.021 598.132 161.777 596.02 161.615V126.449C598.132 126.612 601.218 126.774 605.197 127.262H605.685C613.968 127.668 615.105 123.445 615.105 123.445C613.238 119.059 609.096 117.11 605.685 116.866H605.441C601.299 116.46 598.132 116.217 596.02 116.054V86.2491H588.711V194.668C548.836 186.141 518.787 190.526 494.504 208.312C470.303 190.526 440.173 186.141 400.298 194.668V86.2491H392.988V115.973C391.445 116.054 389.415 116.217 386.816 116.46V115.323C386.816 114.511 386.167 113.861 385.192 113.861L375.284 114.917C374.472 114.998 373.822 115.648 373.822 116.46V129.211C373.822 130.023 374.472 130.673 375.528 130.673L385.436 129.698C386.167 129.617 386.816 128.967 386.816 128.155V126.937C389.415 126.693 391.445 126.531 392.988 126.449V161.615C391.445 161.696 389.415 161.858 386.816 162.102V160.965C386.816 160.153 386.167 159.503 385.192 159.503L375.284 160.559C374.472 160.64 373.822 161.29 373.822 162.102V174.771C373.822 175.583 374.472 176.314 375.528 176.233L385.436 175.258C386.167 175.177 386.816 174.527 386.816 173.796V172.578C389.415 172.335 391.445 172.172 392.988 172.091V203.845L397.455 202.789C438.468 193.206 468.598 197.348 492.23 215.783L494.504 217.57L496.778 215.783C520.411 197.348 550.541 193.206 591.554 202.789L596.02 203.845V172.091C598.132 172.253 601.218 172.416 605.197 172.903H605.685C613.968 173.309 615.105 169.086 615.105 169.086C613.156 164.701 609.014 162.752 605.685 162.427Z" fill="white"/>
<path d="M697.374 604.793L656.28 566.785L646.941 558.014L641.743 566.623C632.81 581.485 622.74 595.453 611.938 608.447L597.97 595.778C616.892 572.957 632.323 547.294 643.611 519.519C647.916 509.043 651.489 498.404 654.494 487.521L676.827 544.939L724.012 551.517C723.931 551.68 723.85 551.923 723.768 552.086L697.374 604.793Z" fill="#484848"/>
<path d="M376.421 527.478C392.908 535.762 407.12 539.822 415.647 539.254H416.784C419.708 539.01 423.444 538.198 426.286 536.493C428.885 534.95 430.59 533.325 432.052 531.214C433.758 528.696 434.489 526.585 434.651 523.986C433.595 524.392 432.539 524.717 431.565 524.961C431.321 525.042 430.672 525.123 430.347 525.204C420.764 526.666 408.744 525.367 392.177 520.9C389.497 523.905 383.893 525.61 377.964 524.23C377.396 525.285 376.909 526.341 376.421 527.478Z" fill="white"/>
<path d="M399.892 436.845C399.486 437.9 398.999 438.875 398.43 439.931C395.994 444.235 392.583 447.402 389.172 449.027C389.172 450.082 389.253 451.219 389.253 452.275C396.319 449.189 403.547 445.616 410.774 441.799C437.412 427.505 456.172 411.669 462.02 400.38C462.182 400.137 462.507 399.487 462.669 399.162C464.294 396.076 465.674 391.853 465.674 387.955C465.674 381.458 462.913 375.691 458.69 372.687C453.168 385.518 443.097 399.974 429.291 413.537C419.87 422.795 409.8 430.673 399.892 436.845Z" fill="white"/>
<path d="M396.237 504.089C393.882 506.688 389.821 509.043 385.111 509.449C384.137 509.53 383.243 509.611 382.35 509.53C382.106 510.505 381.781 511.479 381.457 512.373C405.414 519.032 425.393 520.494 435.625 517.245C435.869 517.164 436.519 517.002 436.762 516.92C439.686 515.946 443.341 514.159 445.777 511.723C447.97 509.449 449.35 507.419 450.325 504.82C451.381 501.896 451.056 499.379 451.056 499.379C450.081 500.109 445.046 501.652 445.046 501.652C435.707 505.063 419.708 505.794 396.237 504.089Z" fill="white"/>
<path d="M463.806 441.961C454.954 451.707 432.215 462.508 402.003 469.736C400.054 472.822 396.481 475.664 391.933 477.37C390.634 477.857 389.334 478.182 388.035 478.426C387.954 479.481 387.791 480.375 387.71 481.43C390.065 481.349 392.502 481.268 394.857 481.106C425.068 479.4 448.782 472.984 458.852 465.188C459.096 465.025 459.664 464.538 459.908 464.376C462.588 462.264 465.755 459.016 467.38 455.524C468.842 452.356 469.41 449.676 469.491 446.671C469.491 443.179 468.842 440.662 467.299 437.982C466.486 439.037 465.674 440.093 464.943 440.986C464.618 441.149 464.05 441.717 463.806 441.961Z" fill="white"/>
<path d="M411.505 547.05C402.003 546.807 388.278 542.502 372.361 534.544C371.63 535.762 370.899 536.98 370.087 538.117C382.35 544.533 393.476 548.918 402.491 551.03C402.085 551.517 401.597 552.004 401.029 552.492C399.161 554.278 397.131 555.415 394.288 556.39C391.202 557.446 387.304 557.364 384.38 556.877C384.137 556.877 383.487 556.715 383.243 556.633C377.883 555.74 370.736 552.573 362.615 547.375C361.641 548.35 360.666 549.243 359.773 550.136C368.219 555.74 375.772 559.476 381.781 560.938C380.238 562.156 378.695 562.887 376.421 563.537C373.823 564.267 370.655 564.024 368.219 563.537C367.975 563.537 367.488 563.374 367.326 563.293C363.184 562.4 357.905 559.72 351.895 555.578C350.514 556.227 349.134 556.877 347.834 557.364C345.236 558.095 341.662 558.826 338.982 558.826C331.023 558.826 323.389 555.172 316.649 548.675C316.405 548.431 314.375 550.461 314.7 550.705C321.359 558.014 330.13 562.156 338.82 562.156C341.662 562.156 348.484 561.181 351.002 559.638C358.148 564.592 363.915 566.947 368.706 567.76C368.95 567.76 369.518 567.922 369.762 567.922C372.361 568.328 375.853 568.409 378.695 567.435C381.294 566.623 383.081 565.486 384.786 563.943C385.517 563.293 386.167 562.562 386.654 561.912C389.659 562.237 393.314 562.156 396.318 561.181C399.486 560.126 401.679 558.826 403.79 556.877C405.496 555.253 407.201 553.791 408.013 552.086C412.723 552.248 416.378 551.517 416.378 551.517C418.165 551.273 420.195 550.624 421.819 549.162C423.038 548.106 423.85 547.05 424.337 545.751C420.601 546.807 416.54 547.213 413.211 547.132C412.886 547.132 411.911 547.05 411.505 547.05Z" fill="white"/>
<path d="M426.773 440.418C419.139 445.047 411.424 449.108 403.708 452.356C402.815 453.818 401.759 455.361 400.46 456.742C397.049 460.559 392.907 462.995 389.09 463.889C389.009 464.944 389.009 466.081 388.928 467.137C393.313 466.163 397.861 465.026 402.328 463.807C431.483 455.849 453.329 444.641 461.613 434.896C461.776 434.652 462.344 434.165 462.507 433.921C464.699 431.322 467.136 427.424 467.948 423.688C469.41 417.354 468.273 412.237 464.862 408.339C456.659 419.546 443.259 430.266 426.773 440.418Z" fill="white"/>
<path d="M461.532 469.817C461.288 470.061 460.557 470.548 460.314 470.71C450.65 478.182 429.209 484.192 401.353 486.547C399.486 488.334 397.13 490.445 394.45 491.744C391.527 493.125 388.522 493.937 385.761 494.1C385.598 495.155 385.354 495.805 385.111 496.861C385.273 496.861 385.436 496.861 385.679 496.942C415.728 500.515 440.173 498.323 451.462 492.394C451.705 492.232 452.436 491.907 452.68 491.826C455.766 490.201 459.339 487.521 461.613 484.354C463.644 481.512 464.699 478.913 465.187 475.989C465.755 472.578 465.593 470.223 464.537 467.299C463.481 468.274 462.425 469.086 461.532 469.817Z" fill="white"/>
<path d="M400.541 412.806C400.541 416.379 399.404 420.521 397.212 424.419C394.775 428.642 391.445 431.81 388.116 433.515C388.197 434.652 388.359 435.789 388.441 436.926C400.379 430.348 412.723 421.252 424.093 410.126C437.656 396.807 447.482 382.757 452.842 370.169C454.304 366.758 455.035 362.535 454.791 358.068C454.142 348.972 449.431 341.42 443.34 338.983C443.422 340.689 443.34 342.557 443.097 344.343C441.797 357.013 430.022 378.696 410.449 401.68C407.201 405.497 403.952 409.232 400.541 412.806Z" fill="white"/>
<path d="M405.414 398.593C424.743 375.367 436.194 353.52 437.412 340.851C438.386 332.892 436.356 325.583 431.889 322.984C431.565 334.273 416.215 361.804 391.933 392.584C394.207 396.888 393.151 404.035 389.496 410.369C388.278 412.481 387.547 413.212 385.354 415.404C385.679 416.785 385.923 418.247 386.167 419.628C392.582 413.293 399.161 406.065 405.414 398.593Z" fill="white"/>
<path d="M252.166 411.75C251.597 411.506 250.947 411.344 250.379 411.1C250.623 413.78 250.623 416.704 250.623 419.709C250.541 427.18 249.567 434.246 248.105 440.093C247.699 441.636 248.43 443.179 249.729 443.667C250.135 443.829 250.623 443.91 251.029 443.829V443.748C253.384 438.307 256.47 432.297 260.206 426.206C260.855 425.069 261.586 423.932 262.236 422.876C261.018 418.166 257.444 413.861 252.166 411.75Z" fill="#231F20"/>
<path d="M459.908 464.376C459.664 464.538 459.096 464.944 458.852 465.188C448.782 472.984 425.068 479.4 394.857 481.106C392.502 481.268 390.065 481.349 387.71 481.431C387.791 480.456 387.954 479.481 388.035 478.426C389.334 478.182 390.634 477.857 391.933 477.37C396.481 475.746 400.054 472.822 402.003 469.736C432.215 462.508 454.954 451.707 463.806 441.961C464.05 441.718 464.537 441.149 464.781 440.905C465.593 440.012 466.405 439.037 467.136 437.901C468.679 440.499 469.41 443.098 469.329 446.59C469.329 449.595 468.679 452.275 467.217 455.442C465.755 458.935 462.588 462.264 459.908 464.376ZM462.588 399.162C462.426 399.406 462.101 400.055 461.938 400.38C456.091 411.669 437.331 427.586 410.693 441.799C403.546 445.697 396.319 449.189 389.172 452.275C389.172 451.138 389.172 450.082 389.091 449.027C392.502 447.321 395.912 444.154 398.349 439.931C398.917 438.875 399.405 437.901 399.811 436.845C409.8 430.673 419.789 422.795 429.21 413.618C443.016 400.055 453.086 385.599 458.609 372.768C462.751 375.854 465.593 381.539 465.593 388.036C465.593 391.853 464.212 396.157 462.588 399.162ZM467.948 423.688C467.055 427.424 464.7 431.241 462.507 433.921C462.345 434.165 461.857 434.733 461.614 434.896C453.411 444.56 431.484 455.849 402.328 463.807C397.862 465.026 393.395 466.163 388.928 467.137C389.009 466.081 389.009 465.026 389.091 463.889C392.908 462.995 397.049 460.559 400.46 456.742C401.76 455.361 402.816 453.818 403.709 452.356C411.424 449.108 419.139 445.128 426.773 440.418C443.259 430.267 456.66 419.546 464.943 408.339C468.273 412.237 469.41 417.272 467.948 423.688ZM443.341 338.983C449.35 341.501 454.142 349.054 454.792 358.068C455.117 362.535 454.386 366.677 452.843 370.169C447.483 382.676 437.575 396.807 424.093 410.126C412.805 421.252 400.379 430.348 388.441 436.926C388.36 435.789 388.197 434.652 388.116 433.515C391.527 431.81 394.775 428.642 397.212 424.419C399.486 420.521 400.623 416.379 400.542 412.806C403.871 409.232 407.201 405.497 410.45 401.68C430.103 378.696 441.798 357.013 443.097 344.343C443.341 342.557 443.422 340.77 443.341 338.983ZM437.412 340.851C436.275 353.52 424.824 375.367 405.414 398.594C399.161 406.146 392.583 413.293 386.086 419.709C385.842 418.328 385.598 416.866 385.274 415.486C387.466 413.293 388.197 412.562 389.415 410.451C393.151 404.116 394.126 396.969 391.852 392.665C416.134 361.885 431.484 334.354 431.809 323.066C436.356 325.583 438.387 332.892 437.412 340.851ZM416.784 539.173H415.647C407.12 539.741 392.908 535.599 376.421 527.397C376.909 526.341 377.477 525.285 377.964 524.148C383.893 525.529 389.497 523.905 392.177 520.819C408.744 525.285 420.764 526.585 430.347 525.123C430.59 525.042 431.24 524.961 431.565 524.879C432.539 524.636 433.595 524.311 434.651 523.905C434.489 526.504 433.758 528.615 432.052 531.133C430.59 533.244 428.885 534.869 426.286 536.412C423.444 538.198 419.708 539.01 416.784 539.173ZM416.378 551.517C416.378 551.517 412.723 552.329 408.013 552.086C407.201 553.872 405.577 555.334 403.79 556.877C401.679 558.826 399.486 560.126 396.319 561.181C393.314 562.156 389.659 562.237 386.654 561.912C386.167 562.562 385.436 563.293 384.786 563.943C383.081 565.567 381.213 566.623 378.695 567.435C375.853 568.328 372.361 568.328 369.762 567.922C369.518 567.922 368.95 567.76 368.706 567.76C363.996 566.948 358.149 564.592 351.002 559.638C348.484 561.181 341.662 562.156 338.82 562.156C330.13 562.156 321.44 558.014 314.7 550.705C314.456 550.461 316.405 548.431 316.649 548.675C323.389 555.172 330.942 558.826 338.982 558.826C341.662 558.826 345.317 558.095 347.834 557.364C349.215 556.877 350.596 556.309 351.895 555.578C357.905 559.72 363.184 562.4 367.326 563.293C367.569 563.293 368.056 563.455 368.219 563.537C370.574 564.024 373.741 564.268 376.421 563.537C378.614 562.887 380.157 562.156 381.781 560.938C375.853 559.395 368.219 555.74 359.773 550.137C360.747 549.243 361.722 548.35 362.615 547.375C370.736 552.573 377.883 555.74 383.243 556.634C383.487 556.715 384.137 556.796 384.38 556.877C387.304 557.364 391.121 557.446 394.288 556.39C397.131 555.415 399.161 554.278 401.029 552.492C401.597 552.004 402.003 551.517 402.491 551.03C393.395 548.918 382.35 544.533 370.087 538.117C370.899 536.98 371.63 535.762 372.361 534.544C388.36 542.503 402.003 546.807 411.505 547.05C411.911 547.05 412.886 547.132 413.292 547.132C416.622 547.213 420.682 546.807 424.418 545.751C423.931 547.05 423.119 548.025 421.901 549.162C420.114 550.624 418.165 551.192 416.378 551.517ZM450.325 504.82C449.35 507.419 448.051 509.449 445.777 511.723C443.341 514.159 439.686 515.946 436.762 516.921C436.519 517.002 435.869 517.164 435.626 517.245C425.393 520.494 405.414 519.113 381.457 512.373C381.781 511.398 382.106 510.505 382.35 509.53C383.243 509.53 384.137 509.53 385.111 509.449C389.903 509.043 393.963 506.688 396.237 504.089C419.627 505.794 435.707 505.145 445.046 501.653C445.046 501.653 450 500.028 451.056 499.379C451.056 499.379 451.462 501.896 450.325 504.82ZM465.106 475.989C464.537 478.913 463.481 481.512 461.532 484.354C459.34 487.522 455.685 490.202 452.599 491.826C452.355 491.988 451.706 492.232 451.381 492.394C440.173 498.323 415.647 500.516 385.598 496.942C385.436 496.942 385.274 496.942 385.03 496.861C385.274 495.805 385.436 495.156 385.68 494.1C388.441 493.856 391.446 493.044 394.369 491.745C397.049 490.445 399.405 488.334 401.272 486.547C429.047 484.192 450.569 478.182 460.233 470.71C460.477 470.548 461.208 469.98 461.451 469.817C462.426 469.086 463.4 468.274 464.375 467.381C465.512 470.223 465.674 472.578 465.106 475.989ZM477.369 446.022C477.044 441.311 475.582 436.926 473.308 433.353C476.151 429.211 477.613 423.932 477.369 418.003C477.206 411.588 474.851 405.659 471.278 401.274C473.552 397.213 474.77 392.34 474.608 386.899C474.283 377.235 469.654 368.87 462.913 364.484C463.157 362.616 463.238 360.83 463.157 358.88C462.751 344.425 456.497 335.248 446.427 331.349C444.315 320.954 437.331 311.371 431.078 306.661C423.525 338.902 399.567 369.844 390.958 382.026C377.071 401.68 373.823 420.44 366.107 442.936C357.012 469.573 350.596 497.836 326.232 514.647C326.232 511.967 326.394 509.287 326.719 506.444C330.699 470.142 360.016 411.1 349.459 376.666C348.809 374.555 348.078 372.524 347.185 370.575C336.708 346.942 312.994 343.288 288.63 354.251C273.444 361.073 257.688 366.839 250.46 383.407C247.537 390.066 246.481 396.888 247.212 402.735C247.374 404.035 248.024 405.091 249.161 405.497C250.704 405.984 252.409 405.091 253.303 403.466C253.953 402.329 254.44 400.705 254.521 398.918V398.675C254.521 398.269 254.602 397.863 254.765 397.457C255.496 395.589 257.526 394.614 259.313 395.345C261.018 396.076 261.83 398.187 261.099 400.055C260.937 400.38 260.774 400.705 260.612 400.949C260.206 401.517 259.719 402.248 259.313 402.979C258.419 404.684 257.851 406.309 257.607 407.689C257.363 409.638 258.419 411.588 260.287 412.4L260.774 412.643C267.677 415.486 275.88 411.831 280.753 404.603C282.539 401.842 284.245 398.756 285.788 395.426C288.224 390.229 288.062 384.869 292.041 380.239C298.701 372.524 318.111 367.408 326.557 377.722C342.962 397.619 324.689 423.445 313.319 440.418C298.944 461.777 279.047 486.222 268.977 510.261C242.745 573.12 287.493 634.76 359.692 634.76C405.496 634.76 434.164 614.782 450.406 590.905C419.058 588.469 402.085 568.247 402.085 568.247C402.085 568.247 408.338 567.597 412.399 560.775C412.399 560.775 415.322 560.451 417.921 560.126C424.256 559.314 430.022 556.065 432.458 549C434.489 543.071 434.651 539.335 434.651 539.335C434.651 539.335 438.874 537.549 441.31 531.864C442.691 528.615 443.097 527.072 443.097 523.742C450.325 521.306 455.847 515.053 458.934 507.175C460.558 502.952 460.883 501.003 460.477 496.942C468.598 492.882 474.77 481.268 474.445 471.847C474.364 468.68 473.552 465.756 472.334 462.995C475.988 458.772 477.856 452.844 477.369 446.022Z" fill="#231F20"/>
<path d="M437.656 127.18H421.9V102.004H437.331C437.493 102.41 437.574 103.223 437.574 104.278C437.574 105.09 437.493 105.821 437.331 106.552H427.179V111.994H435.707C435.869 112.4 435.95 113.131 435.95 114.186C435.95 114.998 435.869 115.648 435.707 116.46H427.179V122.632H437.574C437.737 123.038 437.818 123.851 437.818 124.906C437.899 125.718 437.818 126.449 437.656 127.18Z" fill="#484848"/>
<path d="M449.513 106.227C448.701 106.227 447.726 106.227 447.076 106.309V113.78H448.944C452.03 113.78 453.33 112.643 453.33 109.882C453.33 107.121 451.949 106.227 449.513 106.227ZM460.233 127.18C459.258 127.343 458.284 127.424 457.065 127.424C456.01 127.424 454.954 127.424 454.304 127.262L449.188 118.247H446.995V127.262C446.102 127.424 445.29 127.424 444.315 127.424C443.422 127.424 442.61 127.424 441.716 127.262V102.086C443.422 102.004 446.995 101.923 449.188 101.923C455.522 101.923 458.69 104.197 458.69 109.963C458.69 113.049 456.822 116.135 454.223 117.272L460.233 127.18Z" fill="#484848"/>
<path d="M478.668 127.18H462.913V102.004H478.343C478.505 102.41 478.587 103.223 478.587 104.278C478.587 105.09 478.505 105.821 478.343 106.552H468.273V111.994H476.719C476.881 112.4 476.962 113.131 476.962 114.186C476.962 114.998 476.881 115.648 476.719 116.46H468.191V122.632H478.587C478.749 123.038 478.83 123.851 478.83 124.906C478.911 125.718 478.83 126.449 478.668 127.18Z" fill="#484848"/>
<path d="M429.697 140.986C428.966 140.986 427.991 140.986 427.261 141.068V148.458H429.535C432.377 148.458 433.92 147.727 433.92 144.641C433.92 142.042 432.621 140.986 429.697 140.986ZM429.778 152.925H427.179V161.939C426.448 162.021 425.636 162.102 424.499 162.102C423.525 162.102 422.55 162.021 421.819 161.939V136.845C424.012 136.763 427.261 136.601 429.372 136.601C435.057 136.601 439.199 138.55 439.199 144.479C439.28 150.245 435.625 152.925 429.778 152.925Z" fill="#484848"/>
<path d="M458.284 161.939H442.528V136.763H457.959C458.121 137.17 458.202 137.982 458.202 139.037C458.202 139.85 458.121 140.58 457.959 141.311H447.888V146.753H456.416C456.578 147.159 456.659 147.89 456.659 148.945C456.659 149.758 456.578 150.407 456.416 151.219H447.888V157.392H458.284C458.446 157.798 458.527 158.61 458.527 159.666C458.527 160.396 458.446 161.127 458.284 161.939Z" fill="#484848"/>
<path d="M469.735 140.905C468.923 140.905 467.948 140.986 467.298 140.986V148.458H469.166C472.252 148.458 473.552 147.321 473.552 144.56C473.552 141.799 472.171 140.905 469.735 140.905ZM480.536 161.858C479.561 162.021 478.587 162.102 477.369 162.102C476.313 162.102 475.257 162.102 474.608 161.939L469.491 152.925H467.298V161.939C466.405 162.102 465.593 162.102 464.618 162.102C463.725 162.102 462.913 162.102 462.02 161.939V136.763C463.725 136.682 467.298 136.601 469.491 136.601C475.826 136.601 478.993 138.875 478.993 144.641C478.993 147.727 477.125 150.813 474.526 151.95L480.536 161.858Z" fill="#484848"/>
<path d="M531.862 117.678L529.67 110.532C529.426 109.72 529.182 108.664 528.939 107.527H528.858C528.695 108.664 528.37 109.72 528.127 110.532L526.015 117.678H531.862ZM540.715 127.18C540.227 127.262 539.09 127.343 537.872 127.343C536.898 127.343 535.761 127.262 535.273 127.18L533.405 122.064H524.472L522.685 127.18C521.873 127.262 520.899 127.343 519.924 127.343C518.95 127.343 517.813 127.262 517.244 127.18L526.015 102.004C526.502 101.923 527.802 101.842 528.614 101.842C529.588 101.842 530.807 101.923 531.213 102.004L540.715 127.18Z" fill="#484848"/>
<path d="M550.704 106.227C549.892 106.227 548.917 106.227 548.268 106.309V113.78H550.136C553.222 113.78 554.521 112.643 554.521 109.882C554.521 107.121 553.222 106.227 550.704 106.227ZM561.505 127.18C560.531 127.343 559.556 127.424 558.338 127.424C557.282 127.424 556.226 127.424 555.577 127.262L550.46 118.247H548.268V127.262C547.374 127.424 546.562 127.424 545.588 127.424C544.694 127.424 543.882 127.424 542.989 127.262V102.086C544.694 102.004 548.268 101.923 550.46 101.923C556.795 101.923 559.962 104.197 559.962 109.963C559.962 113.049 558.094 116.135 555.496 117.272L561.505 127.18Z" fill="#484848"/>
<path d="M529.426 141.311H522.767V161.939C522.036 162.021 521.061 162.102 520.168 162.102C519.275 162.102 518.219 162.021 517.488 161.939V141.311H510.829C510.666 140.824 510.585 139.687 510.585 139.037C510.585 138.388 510.747 137.251 510.91 136.763H529.508C529.67 137.251 529.751 138.388 529.751 139.037C529.67 139.606 529.589 140.824 529.426 141.311Z" fill="#484848"/>
<path d="M548.267 161.939H532.512V136.763H547.943C548.105 137.17 548.186 137.982 548.186 139.037C548.186 139.85 548.105 140.58 547.943 141.311H537.872V146.753H546.4C546.562 147.159 546.643 147.89 546.643 148.945C546.643 149.758 546.562 150.407 546.4 151.219H537.872V157.392H548.267C548.43 157.798 548.511 158.61 548.511 159.666C548.511 160.396 548.43 161.127 548.267 161.939Z" fill="#484848"/>
<path d="M559.393 162.264C556.632 162.264 553.709 161.777 551.597 160.802C551.516 160.315 551.435 159.584 551.435 159.016C551.435 158.122 551.516 157.229 551.841 156.254C554.033 157.148 556.957 157.716 559.231 157.716C561.911 157.716 563.292 156.498 563.292 154.793C563.292 152.925 562.073 152.113 558.5 151.057C554.439 149.839 551.516 147.889 551.516 143.585C551.516 138.956 555.495 136.439 560.774 136.439C563.21 136.439 565.322 136.845 566.784 137.332C566.865 137.738 566.946 138.388 566.946 139.362C566.946 140.093 566.865 141.149 566.703 141.717C564.835 141.23 562.723 140.986 561.018 140.986C558.256 140.986 556.713 141.88 556.713 143.423C556.713 145.21 558.094 145.859 561.424 146.915C565.403 148.214 568.408 150.082 568.408 154.549C568.327 159.341 564.51 162.264 559.393 162.264Z" fill="#484848"/>
<path d="M168.516 116.217C169.085 117.76 169.653 119.546 169.897 121.008H169.978C170.222 119.546 170.79 117.76 171.359 116.217L174.12 108.258C174.851 106.227 175.257 104.278 175.257 102.086C175.988 102.004 177.044 101.923 177.937 101.923C178.749 101.923 179.805 102.004 180.536 102.086C180.536 104.603 180.049 106.958 179.074 109.638L172.333 127.262C171.846 127.343 170.872 127.424 169.978 127.424C169.004 127.424 168.192 127.343 167.461 127.262L160.801 109.72C159.827 107.04 159.339 104.603 159.339 102.086C159.989 102.004 160.882 101.923 162.019 101.923C162.913 101.923 163.968 102.004 164.618 102.086C164.618 104.36 165.024 106.227 165.755 108.258L168.516 116.217Z" fill="#484848"/>
<path d="M189.063 127.18C188.332 127.262 187.52 127.343 186.383 127.343C185.409 127.343 184.434 127.262 183.703 127.18V102.004C184.434 101.923 185.49 101.842 186.383 101.842C187.439 101.842 188.332 101.923 189.063 102.004V127.18Z" fill="#484848"/>
<path d="M211.072 106.634H204.412V127.262C203.681 127.343 202.707 127.424 201.732 127.424C200.839 127.424 199.783 127.343 199.052 127.262V106.634H192.474C192.312 106.146 192.23 105.009 192.23 104.36C192.23 103.71 192.393 102.573 192.555 102.086H211.153C211.315 102.573 211.397 103.71 211.397 104.36C211.397 104.928 211.234 106.146 211.072 106.634Z" fill="#484848"/>
<path d="M171.927 152.356L169.735 145.21C169.491 144.397 169.247 143.342 169.004 142.205H168.923C168.76 143.342 168.435 144.397 168.192 145.21L166.08 152.356H171.927ZM180.78 161.939C180.292 162.021 179.155 162.102 177.937 162.102C176.963 162.102 175.826 162.021 175.338 161.939L173.47 156.823H164.537L162.75 161.939C161.938 162.021 160.964 162.102 159.989 162.102C159.015 162.102 157.878 162.021 157.309 161.939L166.08 136.763C166.567 136.682 167.867 136.601 168.679 136.601C169.653 136.601 170.872 136.682 171.278 136.763L180.78 161.939Z" fill="#484848"/>
<path d="M209.204 161.939C208.717 162.021 207.742 162.102 206.686 162.102C205.549 162.102 204.494 162.021 204.088 161.939L203.681 146.834L198.159 159.584C197.753 159.747 196.86 159.828 196.291 159.828C195.641 159.828 194.829 159.747 194.423 159.666L188.901 146.915L188.413 162.021C187.926 162.102 186.789 162.183 185.733 162.183C185.165 162.183 184.109 162.102 183.459 162.021L184.515 136.845C185.246 136.763 185.896 136.682 186.708 136.682C187.601 136.682 188.495 136.763 188.901 136.845L196.291 153.899L203.681 136.845C204.412 136.763 205.143 136.682 205.874 136.682C206.768 136.682 207.498 136.763 208.067 136.845L209.204 161.939Z" fill="#484848"/>
<path d="M263.536 127.18H247.78V102.004H263.211C263.373 102.41 263.454 103.223 263.454 104.278C263.454 105.09 263.373 105.821 263.211 106.552H253.14V111.994H261.668C261.83 112.4 261.911 113.131 261.911 114.186C261.911 114.998 261.83 115.648 261.668 116.46H253.14V122.632H263.536C263.698 123.038 263.779 123.851 263.779 124.906C263.779 125.718 263.698 126.449 263.536 127.18Z" fill="#484848"/>
<path d="M269.383 120.44L274.174 113.943L269.789 107.852C268.408 105.903 267.515 104.116 267.19 102.004C267.758 101.923 268.977 101.842 269.789 101.842C270.682 101.842 271.819 101.923 272.469 102.004C272.631 103.629 273.606 105.009 274.58 106.39L277.179 110.207L279.859 106.471C280.752 105.172 281.646 103.629 281.727 102.004C282.377 101.923 283.514 101.842 284.407 101.842C285.219 101.842 286.356 101.923 286.925 102.004C286.6 104.36 285.625 106.227 284.163 108.339L280.184 113.78L284.976 120.44C286.681 122.714 287.412 124.988 287.574 127.18C286.925 127.262 285.869 127.343 284.894 127.343C284.082 127.343 283.026 127.262 282.295 127.18C282.214 125.556 281.646 124.013 280.671 122.551L277.098 117.191L273.606 122.389C272.712 123.769 272.225 125.475 272.225 127.099C271.657 127.18 270.357 127.262 269.545 127.262C268.652 127.262 267.596 127.18 266.946 127.099C267.028 124.988 267.515 123.038 269.383 120.44Z" fill="#484848"/>
<path d="M306.416 107.283C304.629 106.715 302.355 106.309 300.65 106.309C296.427 106.309 293.665 109.313 293.665 114.755C293.665 119.709 295.858 122.957 300.65 122.957C302.436 122.957 304.467 122.551 306.253 122.064C306.497 122.714 306.659 123.769 306.659 124.582C306.659 125.231 306.659 125.962 306.578 126.368C304.71 127.262 302.355 127.668 300.162 127.668C292.122 127.668 288.224 122.795 288.224 114.917C288.224 107.283 292.447 101.761 300.406 101.761C302.355 101.761 304.873 102.248 306.659 103.06C306.741 103.466 306.822 104.278 306.822 104.766C306.659 105.74 306.497 106.877 306.416 107.283Z" fill="#484848"/>
<path d="M256.226 140.986C253.059 140.986 251.191 143.423 251.191 149.351C251.191 155.28 252.978 157.716 256.226 157.716C259.393 157.716 261.261 155.28 261.261 149.351C261.261 143.423 259.393 140.986 256.226 140.986ZM256.226 162.264C249.323 162.264 245.668 157.473 245.668 149.351C245.668 141.149 249.323 136.357 256.226 136.357C263.129 136.357 266.784 141.149 266.784 149.351C266.784 157.473 263.129 162.264 256.226 162.264Z" fill="#484848"/>
<path d="M285.138 161.939H269.708V136.763C270.438 136.682 271.413 136.601 272.306 136.601C273.362 136.601 274.337 136.682 274.986 136.763V157.392H285.057C285.219 157.798 285.3 158.61 285.3 159.666C285.463 160.396 285.382 161.127 285.138 161.939Z" fill="#484848"/>
<path d="M306.335 152.356C306.335 158.772 303.898 162.264 296.751 162.264C289.523 162.264 287.25 158.691 287.25 152.356V136.763C287.98 136.682 288.955 136.601 289.848 136.601C290.904 136.601 291.797 136.682 292.61 136.763V152.762C292.61 156.173 293.584 158.122 296.833 158.122C300.081 158.122 301.218 156.173 301.218 152.762V136.763C301.868 136.682 303.005 136.601 303.898 136.601C304.71 136.601 305.847 136.682 306.497 136.763V152.356" fill="#484848"/>
</svg>
