<svg xmlns="http://www.w3.org/2000/svg" x="0px" y="0px" viewBox="0 0 18 18" enable-background="new 0 0 18 18" xml:space="preserve">
  <path fill="#65778C" d="M9,2C6.757,2,6.4,2.006,5.381,2.052C3.144,2.155,2.155,3.143,2.053,5.381C2.006,6.398,2,6.754,2,9
    c0,2.243,0.006,2.601,0.052,3.619c0.103,2.237,1.091,3.227,3.328,3.329C6.4,15.994,6.757,16,9,16c2.243,0,2.601-0.006,3.619-0.052
    c2.236-0.103,3.227-1.093,3.328-3.329C15.994,11.603,16,11.246,16,9c0-2.243-0.006-2.6-0.052-3.62
    c-0.101-2.234-1.091-3.225-3.329-3.327C11.603,2.006,11.246,2,9,2z M9,0c2.444,0,2.751,0.011,3.712,0.055
    c3.271,0.15,5.087,1.97,5.233,5.235C17.989,6.25,18,6.556,18,9s-0.011,2.751-0.055,3.711c-0.148,3.271-1.969,5.085-5.234,5.234
    C11.751,17.989,11.444,18,9,18s-2.75-0.011-3.711-0.055c-3.271-0.149-5.085-1.966-5.235-5.234C0.011,11.751,0,11.444,0,9
    s0.011-2.75,0.055-3.711c0.15-3.271,1.967-5.085,5.235-5.235C6.25,0.011,6.556,0,9,0z">
  </path>
  <path fill="#65778C" d="M9,4.378C6.448,4.378,4.378,6.448,4.378,9c0,2.553,2.069,4.622,4.622,4.622
    c2.553,0,4.621-2.069,4.621-4.622C13.621,6.448,11.553,4.378,9,4.378z M9,12c-1.657,0-3-1.343-3-3c0-1.657,1.343-3,3-3
    c1.656,0,3,1.343,3,3C12,10.657,10.656,12,9,12z M13.805,3.116c-0.598,0-1.081,0.484-1.081,1.08s0.483,1.08,1.081,1.08
    c0.596,0,1.079-0.484,1.079-1.08S14.4,3.116,13.805,3.116z">
  </path>
</svg>